<svg xmlns="http://www.w3.org/2000/svg" viewBox="0 0 32 32">
  <defs>
    <linearGradient id="g" x1="0%" y1="0%" x2="100%" y2="100%">
      <stop offset="0%" stop-color="#3b82f6"/>
      <stop offset="100%" stop-color="#8b5cf6"/>
    </linearGradient>
  </defs>
  <rect width="32" height="32" rx="8" fill="url(#g)"/>
  <path d="M16 7a5 5 0 0 0-5 5v2H9a1 1 0 0 0-1 1v9a1 1 0 0 0 1 1h14a1 1 0 0 0 1-1v-9a1 1 0 0 0-1-1h-2v-2a5 5 0 0 0-5-5zm-3 5a3 3 0 0 1 6 0v2h-6v-2zm3 6a1.5 1.5 0 1 1 0 3 1.5 1.5 0 0 1 0-3z" fill="white"/>
</svg>
